# xmcd CD database file
#
# Track frame offsets:
#	150
#	23193
#	33078
#	50910
#	64172
#	81106
#	99553
#	119099
#	134626
#	139048
#	150552
#	166109
#	179453
#	201560
#	216125
#	235844
#	251302
#	269519
#
# Disc length: 3692 seconds
#
# Revision: 0
# Processed by: cddbd v1.5.1PL0 Copyright (c) Steve Scherf et al.
# Submitted via: CDex 1.50
#
DISCID=090e6a12
DTITLE=Charchulla Steel Twins - ...3...4
DYEAR=1900
DGENRE=Salsa
TTITLE0=Negrito de Batey
TTITLE1=Rum and Coke
TTITLE2=Adelita
TTITLE3=Back to Back
TTITLE4=Percussion
TTITLE5=La Bamba
TTITLE6=Dos Alemanes locos
TTITLE7=El chofer
TTITLE8=Die Story von El Yaque
TTITLE9=Perrito pero he
TTITLE10=Clavelito no le da el santo
TTITLE11=Sale Sumbawa
TTITLE12=Maliendo cafe
TTITLE13=Margarita Sound
TTITLE14=Calypso Banana
TTITLE15=La Negra Tomaza
TTITLE16=La vaca vieja
TTITLE17=Radetzki
EXTD=
EXTT0=
EXTT1=
EXTT2=
EXTT3=
EXTT4=
EXTT5=
EXTT6=
EXTT7=
EXTT8=
EXTT9=
EXTT10=
EXTT11=
EXTT12=
EXTT13=
EXTT14=
EXTT15=
EXTT16=
EXTT17=
PLAYORDER=
